{
  "accessors": [
    {
      "bufferView": 2,
      "componentType": 5126,
      "count": 38154,
      "max": [
        61.52265548706055,
        10.045206069946289,
        5.273852825164795
      ],
      "min": [
        -3.0719738006591797,
        -14.451876640319824,
        -0.15040874481201172
      ],
      "type": "VEC3"
    },
    {
      "bufferView": 2,
      "byteOffset": 457848,
      "componentType": 5126,
      "count": 38154,
      "max": [
        1.0,
        1.0,
        1.0
      ],
      "min": [
        -1.0,
        -1.0,
        -1.0
      ],
      "type": "VEC3"
    },
    {
      "bufferView": 3,
      "componentType": 5126,
      "count": 38154,
      "max": [
        1.0,
        1.0,
        1.0,
        1.0
      ],
      "min": [
        -1.0,
        -1.0,
        -1.0,
        -1.0
      ],
      "type": "VEC4"
    },
    {
      "bufferView": 1,
      "componentType": 5126,
      "count": 38154,
      "max": [
        1.0006654262542725,
        1.0
      ],
      "min": [
        -0.0012087333016097546,
        -1.0066137313842773
      ],
      "type": "VEC2"
    },
    {
      "bufferView": 1,
      "byteOffset": 305232,
      "componentType": 5126,
      "count": 38154,
      "max": [
        1.0006654262542725,
        1.0
      ],
      "min": [
        -0.0012087333016097546,
        -1.0066137313842773
      ],
      "type": "VEC2"
    },
    {
      "bufferView": 0,
      "componentType": 5125,
      "count": 73020,
      "type": "SCALAR"
    }
  ],
  "asset": {
    "extras": {
      "author": "AyKay (https://sketchfab.com/AyKay1)",
      "license": "CC-BY-4.0 (http://creativecommons.org/licenses/by/4.0/)",
      "source": "https://sketchfab.com/3d-models/dungeon-test-trim-sheet-d76a8b17ba6e4c448d54e25c088731c1",
      "title": "Dungeon test trim sheet"
    },
    "generator": "Sketchfab-12.64.0",
    "version": "2.0"
  },
  "bufferViews": [
    {
      "buffer": 0,
      "byteLength": 292080,
      "name": "floatBufferViews",
      "target": 34963
    },
    {
      "buffer": 0,
      "byteLength": 610464,
      "byteOffset": 292080,
      "byteStride": 8,
      "name": "floatBufferViews",
      "target": 34962
    },
    {
      "buffer": 0,
      "byteLength": 915696,
      "byteOffset": 902544,
      "byteStride": 12,
      "name": "floatBufferViews",
      "target": 34962
    },
    {
      "buffer": 0,
      "byteLength": 610464,
      "byteOffset": 1818240,
      "byteStride": 16,
      "name": "floatBufferViews",
      "target": 34962
    }
  ],
  "buffers": [
    {
      "byteLength": 2428704,
      "uri": "scene.bin"
    }
  ],
  "images": [
    {
      "uri": "textures/trim2_baseColor.png"
    },
    {
      "uri": "textures/trim2_metallicRoughness.png"
    },
    {
      "uri": "textures/trim2_normal.png"
    }
  ],
  "materials": [
    {
      "doubleSided": true,
      "name": "trim2",
      "normalTexture": {
        "index": 2,
        "texCoord": 1
      },
      "pbrMetallicRoughness": {
        "baseColorTexture": {
          "index": 0
        },
        "metallicRoughnessTexture": {
          "index": 1
        },
        "roughnessFactor": 0.652288577178678
      }
    }
  ],
  "meshes": [
    {
      "name": "Plane_trim2_0",
      "primitives": [
        {
          "attributes": {
            "NORMAL": 1,
            "POSITION": 0,
            "TANGENT": 2,
            "TEXCOORD_0": 3,
            "TEXCOORD_1": 4
          },
          "indices": 5,
          "material": 0,
          "mode": 4
        }
      ]
    }
  ],
  "nodes": [
    {
      "children": [
        1
      ],
      "matrix": [
        1.0,
        0.0,
        0.0,
        0.0,
        0.0,
        2.220446049250313e-16,
        -1.0,
        0.0,
        0.0,
        1.0,
        2.220446049250313e-16,
        0.0,
        0.0,
        0.0,
        0.0,
        1.0
      ],
      "name": "Sketchfab_model"
    },
    {
      "children": [
        2
      ],
      "matrix": [
        0.009999999776482582,
        0.0,
        0.0,
        0.0,
        0.0,
        0.0,
        0.009999999776482582,
        0.0,
        0.0,
        -0.009999999776482582,
        0.0,
        0.0,
        0.0,
        0.0,
        0.0,
        1.0
      ],
      "name": "853d429fbad9496e824c31e9710bab02.fbx"
    },
    {
      "children": [
        3
      ],
      "name": "RootNode"
    },
    {
      "children": [
        4
      ],
      "matrix": [
        100.0,
        0.0,
        0.0,
        0.0,
        -0.0,
        -1.629206793918314e-05,
        -99.99999999999868,
        0.0,
        0.0,
        99.99999999999868,
        -1.629206793918314e-05,
        0.0,
        -3833.3212890625,
        0.0,
        0.0,
        1.0
      ],
      "name": "Plane"
    },
    {
      "mesh": 0,
      "name": "Plane_trim2_0"
    }
  ],
  "samplers": [
    {
      "magFilter": 9729,
      "minFilter": 9987,
      "wrapS": 10497,
      "wrapT": 10497
    }
  ],
  "scene": 0,
  "scenes": [
    {
      "name": "Sketchfab_Scene",
      "nodes": [
        0
      ]
    }
  ],
  "textures": [
    {
      "sampler": 0,
      "source": 0
    },
    {
      "sampler": 0,
      "source": 1
    },
    {
      "sampler": 0,
      "source": 2
    }
  ]
}
